<svg id="Layer_1" enable-background="new 0 0 510 510" height="512" viewBox="0 0 510 510" width="512" xmlns="http://www.w3.org/2000/svg"><g id="XMLID_1615_"><path id="XMLID_2708_" d="m240 150v32.573l7.5 7.761 7.5-10.334 10-23.5-10-32.464c-8.958 5.195-15 14.884-15 25.964z" fill="#6058ad"/><path id="XMLID_2707_" d="m195 46 12.424 14h47.576l10-15-10-15h-47.578z" fill="#6058ad"/><path id="XMLID_2706_" d="m270 150h120c33.084 0 60-26.916 60-60s-26.916-60-60-60h-135v30h135c16.542 0 30 13.458 30 30s-13.458 30-30 30h-120c-5.462 0-10.584 1.475-15 4.036v55.964l7.839 8.506 7.161-5.933z" fill="#453f81"/><path id="XMLID_2705_" d="m210 225v15l27.5 12.5 17.5-12.5 10-28.75-10-31.25c-24.814 0-45 20.188-45 45z" fill="#ffda2d"/><path id="XMLID_2704_" d="m300 225c0-24.812-20.186-45-45-45v60l20.25 10.75 24.75-10.75z" fill="#fdbf00"/><g id="XMLID_2700_"><path id="XMLID_2703_" d="m120 60h-30v-30h30l9.649 18.334z" fill="#6058ad"/></g><path id="XMLID_2690_" d="m165 90h-45v-90h45c24.813 0 45 20.188 45 45s-20.187 45-45 45z" fill="#90cc1c"/><path id="XMLID_2676_" d="m0 240v270h255l10-135-10-135z" fill="#6058ad"/><path id="XMLID_2614_" d="m255 240h255v270h-255z" fill="#453f81"/><g id="XMLID_2610_"><path id="XMLID_2611_" d="m360 420h30v30h-30z" fill="#d5def0"/></g><g id="XMLID_2607_"><path id="XMLID_2609_" d="m360 420h30v30h-30z" fill="#d5def0"/></g><g id="XMLID_2605_"><path id="XMLID_2606_" d="m420 420h30v30h-30z" fill="#d5def0"/></g><g id="XMLID_2537_"><path id="XMLID_2541_" d="m420 420h30v30h-30z" fill="#d5def0"/></g><g id="XMLID_2508_"><path id="XMLID_2510_" d="m60 300h75v30h-75z" fill="#e9f1ff"/></g><g id="XMLID_2504_"><path id="XMLID_2506_" d="m165 300h75v30h-75z" fill="#e9f1ff"/></g><g id="XMLID_2502_"><path id="XMLID_2503_" d="m165 300h75v30h-75z" fill="#e9f1ff"/></g><g id="XMLID_2496_"><path id="XMLID_2501_" d="m270 300h60v30h-60z" fill="#d5def0"/></g><g id="XMLID_2477_"><path id="XMLID_2492_" d="m270 300h60v30h-60z" fill="#d5def0"/></g><g id="XMLID_2414_"><path id="XMLID_2459_" d="m360 300h30v30h-30z" fill="#d5def0"/></g><g id="XMLID_2412_"><path id="XMLID_2413_" d="m360 300h30v30h-30z" fill="#d5def0"/></g><g id="XMLID_2330_"><path id="XMLID_2407_" d="m420 300h30v30h-30z" fill="#d5def0"/></g><g id="XMLID_2328_"><path id="XMLID_2329_" d="m420 300h30v30h-30z" fill="#d5def0"/></g><g id="XMLID_2164_"><path id="XMLID_2253_" d="m60 360h75v30h-75z" fill="#e9f1ff"/></g><g id="XMLID_2157_"><path id="XMLID_2162_" d="m165 360h75v30h-75z" fill="#e9f1ff"/></g><g id="XMLID_1872_"><path id="XMLID_1874_" d="m165 360h75v30h-75z" fill="#e9f1ff"/></g><g id="XMLID_1861_"><path id="XMLID_1863_" d="m270 360h60v30h-60z" fill="#d5def0"/></g><g id="XMLID_1857_"><path id="XMLID_1859_" d="m270 360h60v30h-60z" fill="#d5def0"/></g><g id="XMLID_1854_"><path id="XMLID_1855_" d="m390 360h30v30h-30z" fill="#d5def0"/></g><g id="XMLID_1663_"><path id="XMLID_1845_" d="m390 360h30v30h-30z" fill="#d5def0"/></g><g id="XMLID_1661_"><path id="XMLID_1662_" d="m60 420h75v30h-75z" fill="#e9f1ff"/></g><path id="XMLID_1660_" d="m165 420v30h90l10-15-10-15z" fill="#e9f1ff"/><path id="XMLID_1655_" d="m255 420h60v30h-60z" fill="#d5def0"/></g></svg>